# xmcd
#
# Track frame offsets:
#	182
#	4520
#	15232
#	25985
#	37510
#	48362
#	65977
#	80597
#	91112
#	103040
#	114442
#	125790
#	135637
#	144782
#	156102
#
# Disc length: 2207 seconds
#
# Revision: 1
# Processed by: cddbd v1.4PL0 Copyright (c) Steve Scherf et al.
# Submitted via: audiograbber 1.81.02
#
DISCID=b2089d0f
DTITLE=Elvis Presley - The Great Elvis Presley (LIVE)
DYEAR=1900
DGENRE=
TTITLE0=Introduction
TTITLE1=Heartbreak Hotel
TTITLE2=Long Tall Sally
TTITLE3=I Was The One
TTITLE4=Money Honey
TTITLE5=I Got A Woman
TTITLE6=Blue Suede Shoes
TTITLE7=Hound Dog
TTITLE8=Baby, Let's Play House
TTITLE9=Maybellene
TTITLE10=That's All Right (Mama)
TTITLE11=Blue Moon Of Kentucky
TTITLE12=Good Rockin' Tonight
TTITLE13=I Got A Woman (Alternate Version)
TTITLE14=Tweedle Dee
EXTD=
EXTT0=
EXTT1=
EXTT2=
EXTT3=
EXTT4=
EXTT5=
EXTT6=
EXTT7=
EXTT8=
EXTT9=
EXTT10=
EXTT11=
EXTT12=
EXTT13=
EXTT14=
PLAYORDER=
